<?xml version="1.0"?>
<svg width="640" height="480" xmlns="http://www.w3.org/2000/svg" xmlns:svg="http://www.w3.org/2000/svg">
 <!-- Created with SVG-edit - https://github.com/SVG-Edit/svgedit-->
 <g class="layer">
  <title>Layer 1</title>
  <path stroke="#000000" transform="rotate(70.42671203613281 294.71002197265625,238.13668823242193) " id="svg_5" d="m301.71364,275.50797c3.48011,-1.22645 6.33458,-2.36855 0.92857,-2.40198c-4.77428,0.61612 -17.1249,-3.91251 -7.22638,-6.13844c6.19264,-2.32161 20.28572,3.04078 20.36084,-6.13168c-1.12025,-5.74832 -19.29913,-1.26007 -13.31887,-8.96934c6.58616,-2.5858 19.64597,3.50669 21.85534,-4.49481c-2.02531,-7.7584 -14.69305,-2.80702 -21.06018,-4.95118c-6.17243,1.22247 -7.79794,-6.57093 -0.87047,-5.39461c16.0144,-0.82958 32.1405,0.38792 48.09973,-1.30504c2.57796,-1.37109 4.48358,-9.80528 1.23031,-10.37325c-23.24768,-0.46253 -46.53644,-0.0374 -69.74731,-1.41704c-8.3389,-0.08316 -1.96752,-8.63293 4.19445,-6.62505c5.86963,-1.84555 8.19579,-6.68472 12.50371,-11.46303c2.20141,-10.44447 -8.37881,-6.56795 -12.6997,-3.51166c-4.32089,3.05629 -13.12392,9.34155 -17.52647,12.6511c-3.85927,2.6795 -12.75076,5.65283 -18.15954,9.24467c-4.62323,1.57758 -9.68244,0.79217 -14.22331,1.07545c0,14.1511 0,28.30198 0,42.45307c12.84686,5.37114 26.36532,10.08916 40.60779,9.54944c8.34314,-0.03262 16.92593,0.26698 25.05149,-1.79661l0,-0.00001zm-52.92965,4.53878c-6.55813,-2.41949 -13.10437,-4.86981 -19.60308,-7.43333c0.311,-17.6717 0.62199,-35.3436 0.93297,-53.0153c5.18863,-0.1892 12.8877,2.28202 16.58603,-1.35676c9.94315,-3.06425 16.39877,-9.84169 25.11535,-14.92854c6.13414,-4.6281 11.0338,-6.20767 17.36953,-9.71755c4.81227,-2.1368 7.41789,-1.04562 12.83679,-0.11399c2.36343,3.71358 14.23803,1.38253 3.77496,12.70739c-10.46307,11.32486 -7.29965,11.84739 -1.05653,11.92935c17.3809,1.59926 35.04165,-0.64854 52.28582,2.14654c4.29394,5.58181 5.11284,18.1219 -2.74609,21.66161c-7.52084,2.08785 -15.4505,1.05218 -23.17746,1.30324c-0.00047,5.28063 0.90878,12.01946 -5.19545,14.67211c-4.50731,5.64468 -4.82428,13.93703 -12.08722,18.06739c-6.10835,6.00993 -14.80374,7.86644 -23.28525,7.66829c-13.90759,0.18103 -28.54659,1.46119 -41.75036,-3.59005l0,-0.00041l-0.00001,0.00001z" stroke-linecap="null" stroke-linejoin="null" stroke-dasharray="null" stroke-width="5" fill="#ffffff"/>
  <text fill="#000000" stroke="#000000" stroke-width="0" stroke-dasharray="null" stroke-linejoin="null" stroke-linecap="null" x="356" y="183" id="svg_8" font-size="24" font-family="serif" text-anchor="middle" xml:space="preserve"/>
  <text style="cursor: text;" stroke="#000000" transform="matrix(5.891719818115234,0,0,5.566037654876709,-1498.0891942977905,-577.0330086350441) " font-style="italic" font-weight="bold" xml:space="preserve" text-anchor="middle" font-family="Sans-serif" font-size="24" id="svg_1" y="154.623729" x="311.852968" stroke-width="0" fill="#ffffff">G</text>
  <text font-weight="bold" font-style="italic" xml:space="preserve" text-anchor="middle" font-family="Monospace" font-size="24" id="svg_16" y="225.640849" x="131.730095" stroke-linecap="null" stroke-linejoin="null" stroke-dasharray="null" stroke-width="0" fill="#ffffff" transform="matrix(7.219465285950915,0,0,6.405490887552164,-701.0182343891834,-1163.2029613509383) " stroke="#000000">L</text>
 </g>
</svg>
